<mxfile host="Electron" modified="2024-04-11T19:03:21.647Z" agent="Mozilla/5.0 (Windows NT 10.0; Win64; x64) AppleWebKit/537.36 (KHTML, like Gecko) draw.io/24.1.0 Chrome/120.0.6099.109 Electron/28.1.0 Safari/537.36" etag="WnJewXg2kPmm3T6xBXSC" version="24.1.0" type="device">
  <diagram id="C5RBs43oDa-KdzZeNtuy" name="Page-1">
    <mxGraphModel dx="1050" dy="717" grid="1" gridSize="10" guides="1" tooltips="1" connect="1" arrows="1" fold="1" page="1" pageScale="1" pageWidth="827" pageHeight="1169" math="0" shadow="0">
      <root>
        <mxCell id="WIyWlLk6GJQsqaUBKTNV-0" />
        <mxCell id="WIyWlLk6GJQsqaUBKTNV-1" parent="WIyWlLk6GJQsqaUBKTNV-0" />
        <mxCell id="R9ia1eQwaeACYaWt-LlJ-0" value="anchor_on_event()" style="strokeWidth=2;html=1;shape=mxgraph.flowchart.start_1;whiteSpace=wrap;" vertex="1" parent="WIyWlLk6GJQsqaUBKTNV-1">
          <mxGeometry x="360" y="40" width="120" height="30" as="geometry" />
        </mxCell>
        <mxCell id="R9ia1eQwaeACYaWt-LlJ-13" style="edgeStyle=orthogonalEdgeStyle;rounded=0;orthogonalLoop=1;jettySize=auto;html=1;exitX=0;exitY=0.5;exitDx=0;exitDy=0;exitPerimeter=0;" edge="1" parent="WIyWlLk6GJQsqaUBKTNV-1" source="R9ia1eQwaeACYaWt-LlJ-1" target="R9ia1eQwaeACYaWt-LlJ-11">
          <mxGeometry relative="1" as="geometry" />
        </mxCell>
        <mxCell id="R9ia1eQwaeACYaWt-LlJ-16" value="other" style="edgeLabel;html=1;align=center;verticalAlign=middle;resizable=0;points=[];" vertex="1" connectable="0" parent="R9ia1eQwaeACYaWt-LlJ-13">
          <mxGeometry x="-0.1262" y="-1" relative="1" as="geometry">
            <mxPoint as="offset" />
          </mxGeometry>
        </mxCell>
        <mxCell id="R9ia1eQwaeACYaWt-LlJ-14" style="edgeStyle=orthogonalEdgeStyle;rounded=0;orthogonalLoop=1;jettySize=auto;html=1;exitX=1;exitY=0.5;exitDx=0;exitDy=0;exitPerimeter=0;" edge="1" parent="WIyWlLk6GJQsqaUBKTNV-1" source="R9ia1eQwaeACYaWt-LlJ-1" target="R9ia1eQwaeACYaWt-LlJ-12">
          <mxGeometry relative="1" as="geometry" />
        </mxCell>
        <mxCell id="R9ia1eQwaeACYaWt-LlJ-15" value="rx packet" style="edgeLabel;html=1;align=center;verticalAlign=middle;resizable=0;points=[];" vertex="1" connectable="0" parent="R9ia1eQwaeACYaWt-LlJ-14">
          <mxGeometry x="-0.0892" y="1" relative="1" as="geometry">
            <mxPoint as="offset" />
          </mxGeometry>
        </mxCell>
        <mxCell id="R9ia1eQwaeACYaWt-LlJ-1" value="event type" style="strokeWidth=2;html=1;shape=mxgraph.flowchart.decision;whiteSpace=wrap;" vertex="1" parent="WIyWlLk6GJQsqaUBKTNV-1">
          <mxGeometry x="370" y="100" width="100" height="55" as="geometry" />
        </mxCell>
        <mxCell id="R9ia1eQwaeACYaWt-LlJ-11" value="start_next_event()" style="rounded=1;whiteSpace=wrap;html=1;absoluteArcSize=1;arcSize=14;strokeWidth=2;" vertex="1" parent="WIyWlLk6GJQsqaUBKTNV-1">
          <mxGeometry x="20" y="160" width="120" height="30" as="geometry" />
        </mxCell>
        <mxCell id="R9ia1eQwaeACYaWt-LlJ-12" value="handle_rx_packet()" style="rounded=1;whiteSpace=wrap;html=1;absoluteArcSize=1;arcSize=14;strokeWidth=2;" vertex="1" parent="WIyWlLk6GJQsqaUBKTNV-1">
          <mxGeometry x="730" y="160" width="130" height="30" as="geometry" />
        </mxCell>
        <mxCell id="R9ia1eQwaeACYaWt-LlJ-17" style="edgeStyle=orthogonalEdgeStyle;rounded=0;orthogonalLoop=1;jettySize=auto;html=1;exitX=0.5;exitY=1;exitDx=0;exitDy=0;exitPerimeter=0;entryX=0.5;entryY=0;entryDx=0;entryDy=0;entryPerimeter=0;" edge="1" parent="WIyWlLk6GJQsqaUBKTNV-1" source="R9ia1eQwaeACYaWt-LlJ-0" target="R9ia1eQwaeACYaWt-LlJ-1">
          <mxGeometry relative="1" as="geometry" />
        </mxCell>
      </root>
    </mxGraphModel>
  </diagram>
</mxfile>
